HIERARCHY
ROOT Hips
{
	OFFSET 0.000000 83.214638 0.000000
	CHANNELS 6 Xposition Yposition Zposition Xrotation Yrotation Zrotation
	JOINT Pelvis
	{
		OFFSET 0.000000 0.000000 0.000000
		CHANNELS 3 Xrotation Yrotation Zrotation
		JOINT LeftUpLeg
		{
			OFFSET 8.479700 -4.795502 -0.379100
			CHANNELS 3 Xrotation Yrotation Zrotation
			JOINT LeftLeg
			{
				OFFSET 0.024144 -32.555107 0.112900
				CHANNELS 3 Xrotation Yrotation Zrotation
				JOINT LeftFoot
				{
					OFFSET -0.024144 -32.638630 -3.012600
					CHANNELS 3 Xrotation Yrotation Zrotation
					JOINT LeftToeBase
					{
						OFFSET 0.970200 -13.225400 11.864200
						CHANNELS 3 Xrotation Yrotation Zrotation
						End Site
						{
							OFFSET 0.000000 12.319262 0.000000
						}
					}
					JOINT LFootTongue
					{
						OFFSET 1.142400 -1.059800 6.665200
						CHANNELS 3 Xrotation Yrotation Zrotation
						End Site
						{
							OFFSET 0.000000 12.319262 0.000000
						}
					}
				}
				JOINT LeftPantLeg
				{
					OFFSET 0.918482 -16.533964 -2.284700
					CHANNELS 3 Xrotation Yrotation Zrotation
					End Site
					{
						OFFSET 0.350399 24.744368 0.000000
					}
				}
			}
		}
		JOINT RightUpLeg
		{
			OFFSET -8.479700 -4.795502 -0.379100
			CHANNELS 3 Xrotation Yrotation Zrotation
			JOINT RightLeg
			{
				OFFSET -0.023144 -32.555092 0.112900
				CHANNELS 3 Xrotation Yrotation Zrotation
				JOINT RightFoot
				{
					OFFSET 0.023144 -32.638641 -3.012700
					CHANNELS 3 Xrotation Yrotation Zrotation
					JOINT RightToeBase
					{
						OFFSET -0.970200 -13.225400 11.864200
						CHANNELS 3 Xrotation Yrotation Zrotation
						End Site
						{
							OFFSET 0.000000 12.319244 0.000000
						}
					}
					JOINT RFootTongue
					{
						OFFSET -1.142200 -1.059800 6.665200
						CHANNELS 3 Xrotation Yrotation Zrotation
						End Site
						{
							OFFSET 0.000000 12.319243 0.000000
						}
					}
				}
				JOINT RightPantLeg
				{
					OFFSET -0.919482 -16.533978 -2.284800
					CHANNELS 3 Xrotation Yrotation Zrotation
					End Site
					{
						OFFSET -0.350400 24.744419 0.000000
					}
				}
			}
		}
	}
	JOINT Spine
	{
		OFFSET 0.000000 7.722000 1.166200
		CHANNELS 3 Xrotation Yrotation Zrotation
		JOINT Spine1
		{
			OFFSET 0.000000 12.024101 0.248800
			CHANNELS 3 Xrotation Yrotation Zrotation
			JOINT Spine2
			{
				OFFSET 0.000000 11.502998 -0.491200
				CHANNELS 3 Xrotation Yrotation Zrotation
				JOINT Neck
				{
					OFFSET 0.000000 18.430702 -3.123100
					CHANNELS 3 Xrotation Yrotation Zrotation
					JOINT Head
					{
						OFFSET 0.000000 9.051102 1.034000
						CHANNELS 3 Xrotation Yrotation Zrotation
						JOINT HairB
						{
							OFFSET 0.208400 24.786102 24.822300
							CHANNELS 3 Xrotation Yrotation Zrotation
							End Site
							{
								OFFSET 0.000000 32.263779 0.000000
							}
						}
						JOINT HairA
						{
							OFFSET -7.081100 24.428299 23.196600
							CHANNELS 3 Xrotation Yrotation Zrotation
							End Site
							{
								OFFSET 0.000000 32.263779 0.000000
							}
						}
						JOINT Hat
						{
							OFFSET 16.728800 15.048294 -15.439601
							CHANNELS 3 Xrotation Yrotation Zrotation
							End Site
							{
								OFFSET 0.000000 32.263779 0.000000
							}
						}
					}
				}
				JOINT LeftShoulder
				{
					OFFSET 6.197800 13.665199 -4.064700
					CHANNELS 3 Xrotation Yrotation Zrotation
					JOINT LeftArm
					{
						OFFSET 7.778100 -0.187103 -1.709300
						CHANNELS 3 Xrotation Yrotation Zrotation
						JOINT LeftForeArm
						{
							OFFSET 22.049376 0.000000 0.000000
							CHANNELS 3 Xrotation Yrotation Zrotation
							JOINT LeftHand
							{
								OFFSET 23.009392 0.000000 0.000000
								CHANNELS 3 Xrotation Yrotation Zrotation
								JOINT LeftHandThumb1
								{
									OFFSET 3.507191 -2.063065 3.133727
									CHANNELS 3 Xrotation Yrotation Zrotation
									JOINT LeftHandThumb2
									{
										OFFSET 3.101337 -1.790558 1.790558
										CHANNELS 3 Xrotation Yrotation Zrotation
										JOINT LeftHandThumb3
										{
											OFFSET 3.058640 -1.765907 1.765906
											CHANNELS 3 Xrotation Yrotation Zrotation
											End Site
											{
												OFFSET -0.415260 3.926476 -0.049563
											}
										}
									}
								}
								JOINT LeftHandIndex1
								{
									OFFSET 11.334419 -0.901459 3.706815
									CHANNELS 3 Xrotation Yrotation Zrotation
									JOINT LeftHandIndex2
									{
										OFFSET 3.283112 0.000000 0.000000
										CHANNELS 3 Xrotation Yrotation Zrotation
										JOINT LeftHandIndex3
										{
											OFFSET 3.323853 0.000000 0.000000
											CHANNELS 3 Xrotation Yrotation Zrotation
											End Site
											{
												OFFSET -1.135597 3.097809 0.402452
											}
										}
									}
								}
								JOINT LeftHandMiddle1
								{
									OFFSET 11.335861 0.000000 0.000000
									CHANNELS 3 Xrotation Yrotation Zrotation
									JOINT LeftHandMiddle2
									{
										OFFSET 3.410492 0.000000 0.000000
										CHANNELS 3 Xrotation Yrotation Zrotation
										JOINT LeftHandMiddle3
										{
											OFFSET 3.312172 0.000000 0.000000
											CHANNELS 3 Xrotation Yrotation Zrotation
											End Site
											{
												OFFSET -1.150200 3.080154 0.400270
											}
										}
									}
								}
								JOINT LeftHandRing1
								{
									OFFSET 11.514786 -0.013176 -3.003090
									CHANNELS 3 Xrotation Yrotation Zrotation
									JOINT LeftHandRing2
									{
										OFFSET 3.053307 0.000000 0.000000
										CHANNELS 3 Xrotation Yrotation Zrotation
										JOINT LeftHandRing3
										{
											OFFSET 3.295807 0.000000 0.000000
											CHANNELS 3 Xrotation Yrotation Zrotation
											End Site
											{
												OFFSET -1.281006 3.013344 0.375733
											}
										}
									}
								}
								JOINT LeftHandPinky1
								{
									OFFSET 10.518692 -0.960396 -5.730441
									CHANNELS 3 Xrotation Yrotation Zrotation
									JOINT LeftHandPinky2
									{
										OFFSET 2.861649 0.000000 0.000000
										CHANNELS 3 Xrotation Yrotation Zrotation
										JOINT LeftHandPinky3
										{
											OFFSET 2.863380 0.000000 0.000000
											CHANNELS 3 Xrotation Yrotation Zrotation
											End Site
											{
												OFFSET -0.843597 2.711159 0.369971
											}
										}
									}
								}
							}
							JOINT LSleeve
							{
								OFFSET 6.676277 -0.344902 -1.011730
								CHANNELS 3 Xrotation Yrotation Zrotation
								End Site
								{
									OFFSET 0.000000 14.885353 0.000000
								}
							}
						}
					}
				}
				JOINT RightShoulder
				{
					OFFSET -6.197800 13.665199 -4.064700
					CHANNELS 3 Xrotation Yrotation Zrotation
					JOINT RightArm
					{
						OFFSET -7.778100 -0.187103 -1.709300
						CHANNELS 3 Xrotation Yrotation Zrotation
						JOINT RightForeArm
						{
							OFFSET -22.049376 0.000000 0.000000
							CHANNELS 3 Xrotation Yrotation Zrotation
							JOINT RightHand
							{
								OFFSET -23.009392 0.000000 0.000000
								CHANNELS 3 Xrotation Yrotation Zrotation
								JOINT RightHandThumb1
								{
									OFFSET -3.507191 -2.063065 3.133727
									CHANNELS 3 Xrotation Yrotation Zrotation
									JOINT RightHandThumb2
									{
										OFFSET -3.101337 -1.790558 1.790558
										CHANNELS 3 Xrotation Yrotation Zrotation
										JOINT RightHandThumb3
										{
											OFFSET -3.058640 -1.765907 1.765906
											CHANNELS 3 Xrotation Yrotation Zrotation
											End Site
											{
												OFFSET 0.415260 3.926476 -0.049563
											}
										}
									}
								}
								JOINT RightHandIndex1
								{
									OFFSET -11.334419 -0.901459 3.706815
									CHANNELS 3 Xrotation Yrotation Zrotation
									JOINT RightHandIndex2
									{
										OFFSET -3.283112 0.000000 0.000000
										CHANNELS 3 Xrotation Yrotation Zrotation
										JOINT RightHandIndex3
										{
											OFFSET -3.323853 0.000000 0.000000
											CHANNELS 3 Xrotation Yrotation Zrotation
											End Site
											{
												OFFSET 1.135597 3.097809 0.402452
											}
										}
									}
								}
								JOINT RightHandMiddle1
								{
									OFFSET -11.335861 0.000000 0.000000
									CHANNELS 3 Xrotation Yrotation Zrotation
									JOINT RightHandMiddle2
									{
										OFFSET -3.410492 0.000000 0.000000
										CHANNELS 3 Xrotation Yrotation Zrotation
										JOINT RightHandMiddle3
										{
											OFFSET -3.312172 0.000000 0.000000
											CHANNELS 3 Xrotation Yrotation Zrotation
											End Site
											{
												OFFSET 1.150200 3.080154 0.400270
											}
										}
									}
								}
								JOINT RightHandRing1
								{
									OFFSET -11.514786 -0.013176 -3.003090
									CHANNELS 3 Xrotation Yrotation Zrotation
									JOINT RightHandRing2
									{
										OFFSET -3.053307 0.000000 0.000000
										CHANNELS 3 Xrotation Yrotation Zrotation
										JOINT RightHandRing3
										{
											OFFSET -3.295807 0.000000 0.000000
											CHANNELS 3 Xrotation Yrotation Zrotation
											End Site
											{
												OFFSET 1.281006 3.013344 0.375733
											}
										}
									}
								}
								JOINT RightHandPinky1
								{
									OFFSET -10.518692 -0.960396 -5.730441
									CHANNELS 3 Xrotation Yrotation Zrotation
									JOINT RightHandPinky2
									{
										OFFSET -2.861649 0.000000 0.000000
										CHANNELS 3 Xrotation Yrotation Zrotation
										JOINT RightHandPinky3
										{
											OFFSET -2.863380 0.000000 0.000000
											CHANNELS 3 Xrotation Yrotation Zrotation
											End Site
											{
												OFFSET 0.843597 2.711159 0.369971
											}
										}
									}
								}
							}
							JOINT RSleeve
							{
								OFFSET -6.676277 -0.344902 -1.011730
								CHANNELS 3 Xrotation Yrotation Zrotation
								End Site
								{
									OFFSET 0.000000 14.885353 0.000000
								}
							}
						}
					}
				}
				JOINT Backpack
				{
					OFFSET 0.000000 -2.471497 36.677502
					CHANNELS 3 Xrotation Yrotation Zrotation
					End Site
					{
						OFFSET 0.000000 20.427315 0.000000
					}
				}
				JOINT Hood
				{
					OFFSET 0.000000 18.754097 -10.431000
					CHANNELS 3 Xrotation Yrotation Zrotation
					JOINT Hood1
					{
						OFFSET 0.000000 -5.011002 -7.685901
						CHANNELS 3 Xrotation Yrotation Zrotation
						End Site
						{
							OFFSET 0.000000 9.175140 0.000000
						}
					}
				}
				JOINT LHoodieString
				{
					OFFSET 5.250500 16.397697 3.089900
					CHANNELS 3 Xrotation Yrotation Zrotation
					JOINT LHoodieString1
					{
						OFFSET 0.257700 -6.364304 3.694600
						CHANNELS 3 Xrotation Yrotation Zrotation
						JOINT LHoodieString2
						{
							OFFSET 0.000000 -9.643799 2.679100
							CHANNELS 3 Xrotation Yrotation Zrotation
							End Site
							{
								OFFSET 0.000000 10.009018 0.000000
							}
						}
					}
				}
				JOINT RHoodieString
				{
					OFFSET -5.250500 16.397697 3.089900
					CHANNELS 3 Xrotation Yrotation Zrotation
					JOINT RHoodieString1
					{
						OFFSET -0.257700 -6.364304 3.694600
						CHANNELS 3 Xrotation Yrotation Zrotation
						JOINT RHoodieString2
						{
							OFFSET 0.000000 -9.643799 2.679100
							CHANNELS 3 Xrotation Yrotation Zrotation
							End Site
							{
								OFFSET 0.000000 10.009018 0.000000
							}
						}
					}
				}
			}
			JOINT LBackpack_Strap
			{
				OFFSET 15.223200 -7.719803 -6.610900
				CHANNELS 3 Xrotation Yrotation Zrotation
				End Site
				{
					OFFSET 0.000000 16.040596 0.000000
				}
			}
			JOINT RBackpack_Strap
			{
				OFFSET -15.223000 -7.719803 -6.610900
				CHANNELS 3 Xrotation Yrotation Zrotation
				End Site
				{
					OFFSET 0.000000 16.040596 0.000000
				}
			}
		}
	}
	JOINT BoyFacialAnim_Joint
	{
		OFFSET 1.000000 -82.208099 -1.550900
		CHANNELS 3 Xrotation Yrotation Zrotation
		End Site
		{
			OFFSET 0.000000 30.012791 0.000000
		}
	}
}
MOTION
Frames: 4
Frame Time: 0.033333
-6.046612 116.128250 317.312775 -26.996423 21.319623 -3.817054 -0.000000 0.000001 0.000001 -18.168621 19.306080 26.639918 60.477480 9.549398 -2.087077 -6.995246 -1.361601 11.934036 -0.000000 -0.000001 0.000000 -0.000000 -0.000001 0.000000 -0.000000 -0.000002 0.000000 -3.509419 -11.552110 -11.923019 23.947041 -2.402065 1.631835 6.889500 0.135735 11.464174 -0.000000 -0.000000 0.000001 -0.000000 -0.000000 0.000001 -0.000002 -0.000000 -0.000000 -0.241657 3.436450 -1.263297 -0.915313 5.948907 -0.235585 -0.978274 5.938564 -0.223594 8.826563 -6.255138 5.900864 19.269328 -26.510360 10.973545 0.000000 -0.000000 0.000000 0.000000 -0.000000 0.000000 0.000000 -0.000000 0.000000 0.796943 0.530548 -3.114994 -45.720709 37.596472 -8.287744 -0.000038 -68.544534 -0.000046 -50.934814 -19.681422 -28.756237 -1.750682 5.518335 6.123887 10.473409 48.975182 0.067397 0.000003 -0.000001 0.000001 0.326086 -2.097728 17.668955 0.003648 0.224340 -1.859281 0.000001 -0.000002 0.000001 0.326678 -2.099565 17.684963 0.003694 0.226259 -1.875256 0.000004 0.000001 -0.000001 0.326080 -2.097726 17.668951 0.003638 0.224335 -1.859270 -0.000001 -0.000002 0.000003 -0.921291 1.759999 18.175702 -0.012441 -3.829956 -2.369942 0.000001 -0.000002 -0.000001 -0.000001 0.000000 0.000002 -0.963411 -6.158339 -7.118261 -53.857862 16.085297 -24.383234 0.000304 86.909895 -0.000305 -45.573894 -6.810838 2.899258 -0.908904 -3.581564 -6.586622 22.480745 -45.907822 5.848722 0.000001 0.000002 -0.000001 0.465097 2.504780 -21.035828 0.001435 -0.141812 1.163692 -0.000003 -0.000002 0.000005 0.465108 2.504782 -21.035828 0.001429 -0.141815 1.163692 0.000001 -0.000001 0.000001 0.465098 2.504772 -21.035825 0.001435 -0.141810 1.163702 -0.000001 0.000003 0.000001 0.465095 2.504771 -21.035835 0.001432 -0.141815 1.163702 0.000000 -0.000000 0.000000 -0.000000 -0.000000 0.000000 0.000000 0.000001 -0.000001 0.000000 0.000001 -0.000001 0.000000 0.000001 -0.000001 0.000000 0.000001 -0.000001 0.000000 0.000001 -0.000000 0.000002 0.000001 0.000001 0.000000 0.000001 -0.000001 0.000000 0.000001 -0.000000 0.000002 0.000001 0.000001 -0.000000 0.000000 -0.000000 -0.000000 0.000000 -0.000000 -0.000000 0.000001 0.000001 
-6.708991 112.388161 319.856659 -23.752601 20.467995 -3.542773 0.000001 -0.000000 -0.000001 -17.859070 19.703667 25.542167 54.158561 9.046403 -1.585625 -6.143919 -1.287846 12.244058 0.000000 0.000002 -0.000002 0.000000 0.000002 -0.000001 -0.000000 -0.000001 0.000001 -3.603754 -11.223428 -13.146795 16.702982 -0.933465 0.774411 11.830248 0.858934 16.046519 -0.000000 -0.000000 -0.000000 -0.000000 -0.000000 -0.000000 0.000000 0.000001 -0.000001 0.234650 3.278329 -2.327512 -0.204603 5.500241 -0.304434 -0.233221 5.500917 -0.279598 7.605944 -6.686784 5.726670 19.503998 -27.972463 10.590441 -0.000000 -0.000000 0.000000 -0.000000 -0.000000 0.000000 -0.000000 -0.000000 0.000000 0.757570 0.912788 -3.939632 -25.164111 37.526422 -13.132770 -0.000012 -52.838839 -0.000005 -44.922643 -24.434264 -27.261527 -1.220963 9.419101 4.741506 9.092996 49.693789 2.562001 -0.000000 -0.000001 -0.000000 0.246351 -1.828853 15.342382 -0.000001 -0.000006 -0.000164 -0.000000 -0.000002 -0.000004 0.246863 -1.830717 15.358386 0.000004 0.001929 -0.015978 0.000000 -0.000000 0.000000 0.246348 -1.828856 15.342391 -0.000003 -0.000002 -0.000130 -0.000001 -0.000000 -0.000000 -0.843642 2.076231 15.855173 -0.018071 -4.054250 -0.511058 0.000000 0.000001 -0.000004 0.000001 0.000001 0.000000 -1.099802 -7.426540 -6.180301 -48.697732 2.316727 -23.221644 0.002212 90.723251 -0.002215 -44.395676 4.393183 -0.985967 -1.028746 -3.581066 -6.586355 23.911133 -48.845398 5.548283 0.000000 0.000004 0.000000 0.114857 1.261159 -10.407367 -0.000007 0.000015 0.000109 -0.000006 0.000003 0.000001 0.114862 1.261156 -10.407380 -0.000010 0.000007 0.000050 -0.000000 0.000001 -0.000000 0.114853 1.261154 -10.407381 0.000004 0.000010 0.000007 0.000001 0.000001 -0.000001 0.114852 1.261163 -10.407376 -0.000010 -0.000001 0.000147 0.000003 -0.000000 0.000000 0.000000 -0.000003 -0.000001 0.000000 -0.000001 0.000001 0.000000 -0.000001 0.000001 0.000000 -0.000001 0.000001 0.000000 -0.000001 0.000001 0.000000 -0.000001 0.000001 -0.000001 -0.000000 -0.000001 0.000000 -0.000001 0.000001 0.000000 -0.000001 0.000001 -0.000001 -0.000000 -0.000001 -0.000000 -0.000001 0.000000 -0.000000 -0.000001 0.000000 0.000001 -0.000000 -0.000001 
-7.403855 107.942596 322.308289 -20.213778 20.134761 -3.574282 -0.000000 -0.000001 -0.000000 -18.948919 19.348640 24.890891 48.010513 7.901572 -0.890910 -3.923330 -1.161851 12.361843 -0.000001 -0.000001 0.000001 -0.000001 -0.000001 -0.000000 -0.000001 0.000001 0.000000 -4.937388 -10.915692 -14.467299 11.784800 -0.208955 0.179675 15.505942 1.689416 20.359194 0.000000 0.000000 -0.000000 0.000000 0.000000 -0.000000 0.000002 -0.000000 0.000001 0.501664 3.020499 -3.096582 0.294198 5.029671 -0.138340 0.290756 5.033946 -0.108548 6.317683 -6.961806 5.144949 19.858712 -29.222599 10.634402 0.000000 -0.000000 -0.000000 0.000000 -0.000000 -0.000000 0.000000 -0.000000 -0.000000 0.669195 1.621927 -4.713453 -6.101078 30.093195 -25.447306 0.000010 -40.733285 0.000017 -35.513258 -33.907388 -20.278062 0.109424 13.113209 0.816623 8.392498 47.434469 4.181207 -0.000000 -0.000004 -0.000000 0.438235 -2.421504 20.512790 0.000125 0.043390 -0.359551 -0.000000 -0.000001 -0.000000 0.438913 -2.423309 20.528805 0.000147 0.045323 -0.375532 0.000000 0.000000 -0.000002 0.438244 -2.421492 20.512790 0.000120 0.043392 -0.359549 -0.000001 -0.000001 -0.000001 -0.998706 1.369736 21.010017 -0.017563 -4.010869 -0.870576 -0.000001 0.000001 -0.000000 0.000002 0.000001 0.000001 -1.183214 -8.511309 -5.312420 -41.709322 -9.016225 -17.855071 0.006046 94.055427 -0.006020 -42.269022 18.199297 -4.461291 -1.144901 -3.581351 -6.586098 32.658638 -50.611681 13.420406 -0.000000 -0.000001 -0.000002 0.006574 0.303217 -2.488950 0.000781 -0.103678 0.850767 -0.000002 -0.000001 0.000002 0.006581 0.303216 -2.488950 0.000784 -0.103680 0.850772 0.000001 0.000001 -0.000000 0.006582 0.303221 -2.488949 0.000761 -0.103684 0.850766 0.000002 0.000002 0.000004 0.006575 0.303217 -2.488949 0.000773 -0.103678 0.850769 0.000000 0.000002 -0.000001 -0.000000 -0.000002 -0.000001 0.000000 0.000001 0.000002 0.000000 0.000001 0.000002 0.000000 0.000001 0.000002 0.000000 0.000001 0.000002 0.000000 0.000001 0.000002 0.000000 -0.000001 -0.000000 0.000000 0.000001 0.000002 0.000000 0.000001 0.000002 0.000000 -0.000001 -0.000000 -0.000002 0.000002 0.000000 -0.000002 0.000002 0.000000 -0.000000 -0.000001 -0.000000 
-8.253414 102.693977 324.605988 -16.769605 20.581776 -3.615561 0.000001 0.000001 -0.000000 -20.293993 18.658965 24.111205 41.283439 6.895555 0.059962 -2.314780 -1.037081 11.787264 0.000001 -0.000002 0.000000 0.000001 -0.000002 -0.000000 -0.000000 -0.000002 0.000000 -6.929295 -10.728229 -15.904457 8.637394 0.774161 -0.057022 17.860636 2.402460 24.689064 -0.000000 0.000000 -0.000000 -0.000000 0.000000 -0.000000 0.000004 0.000000 0.000001 0.681599 2.618470 -3.742373 0.877240 4.478981 0.218696 0.885099 4.479062 0.238401 5.259847 -7.097512 4.607729 18.704149 -30.262686 10.640188 -0.000000 -0.000000 0.000000 -0.000000 -0.000000 0.000000 -0.000000 -0.000000 0.000000 0.783914 1.844682 -7.130923 2.313099 23.115988 -33.250860 0.000004 -37.160529 0.000003 -21.573791 -41.452531 -8.027944 -0.023644 13.691831 -3.243832 8.070874 43.067416 4.808553 -0.000000 -0.000001 0.000001 0.750929 -3.131798 26.961004 0.002182 0.174387 -1.445221 -0.000001 -0.000002 -0.000002 0.751796 -3.133516 26.977027 0.002244 0.176318 -1.461204 0.000003 -0.000001 -0.000002 0.750924 -3.131790 26.961004 0.002177 0.174387 -1.445212 -0.000000 -0.000001 -0.000002 -1.102159 0.474648 27.428445 -0.014313 -3.879886 -1.956024 0.000002 -0.000001 -0.000000 0.000002 0.000000 0.000003 -1.239148 -9.386756 -4.335289 -34.386154 -16.060753 -9.432144 0.000258 96.892886 -0.000253 -35.452763 29.931354 -7.619884 -1.256146 -3.581786 -6.586004 50.084234 -48.010568 30.219998 0.000000 0.000001 0.000000 0.008919 -0.352862 2.896641 0.000963 -0.116200 0.953489 -0.000006 -0.000001 -0.000000 0.008915 -0.352858 2.896644 0.000971 -0.116196 0.953493 0.000003 -0.000000 -0.000000 0.008921 -0.352856 2.896648 0.000962 -0.116202 0.953491 0.000000 0.000001 0.000001 0.008921 -0.352856 2.896644 0.000956 -0.116200 0.953488 0.000000 0.000001 0.000002 -0.000001 0.000000 -0.000002 -0.000001 -0.000001 -0.000000 -0.000001 -0.000001 -0.000000 -0.000001 -0.000001 -0.000000 -0.000001 -0.000001 -0.000000 -0.000001 -0.000001 0.000000 -0.000001 -0.000000 -0.000001 -0.000001 -0.000001 -0.000000 -0.000001 -0.000001 0.000000 -0.000001 -0.000000 -0.000001 -0.000001 0.000001 0.000000 -0.000001 0.000001 0.000000 0.000001 0.000001 -0.000000 
